<svg xmlns="http://www.w3.org/2000/svg" version="1.1" xmlns:xlink="http://www.w3.org/1999/xlink" xmlns:svgjs="http://svgjs.dev/svgjs" width="1500" height="1500" viewBox="0 0 1500 1500"><g transform="matrix(1,0,0,1,-0.323615160350073,-0.3236151603499593)"><svg viewBox="0 0 343 343" data-background-color="#bfbfc9" preserveAspectRatio="xMidYMid meet" height="1500" width="1500" xmlns="http://www.w3.org/2000/svg" xmlns:xlink="http://www.w3.org/1999/xlink"><g id="tight-bounds" transform="matrix(1,0,0,1,0.0740000000000407,0.07400000000001228)"><svg viewBox="0 0 342.85155851775386 342.85155851775386" height="342.85155851775386" width="342.85155851775386"><g><svg></svg></g><g><svg viewBox="0 0 342.85155851775386 342.85155851775386" height="342.85155851775386" width="342.85155851775386"><g><path d="M0 171.426c0-94.676 76.75-171.426 171.426-171.426 94.676 0 171.426 76.75 171.426 171.426 0 94.676-76.75 171.426-171.426 171.426-94.676 0-171.426-76.75-171.426-171.426zM171.426 337.347c91.636 0 165.922-74.286 165.921-165.921 0-91.636-74.286-165.922-165.921-165.922-91.636 0-165.922 74.286-165.922 165.922 0 91.636 74.286 165.922 165.922 165.921z" data-fill-palette-color="tertiary" fill="#054096" stroke="transparent"></path><ellipse rx="164.56874808852186" ry="164.56874808852186" cx="171.42577925887693" cy="171.42577925887693" fill="#054096" stroke="transparent" stroke-width="0" fill-opacity="1" data-fill-palette-color="tertiary"></ellipse></g><g transform="matrix(1,0,0,1,64.84655864529837,91.52906955418004)"><svg viewBox="0 0 213.1584412271571 159.79341940939378" height="159.79341940939378" width="213.1584412271571"><g><svg viewBox="0 0 213.1584412271571 159.79341940939378" height="159.79341940939378" width="213.1584412271571"><g><svg viewBox="0 0 213.1584412271571 159.79341940939378" height="159.79341940939378" width="213.1584412271571"><g transform="matrix(1,0,0,1,0,98.75874378905512)"><svg viewBox="0 0 213.1584412271571 61.03467562033867" height="61.03467562033867" width="213.1584412271571"><g id="textblocktransform"><svg viewBox="0 0 213.1584412271571 61.03467562033867" height="61.03467562033867" width="213.1584412271571" id="textblock"><g><svg viewBox="0 0 213.1584412271571 61.03467562033867" height="61.03467562033867" width="213.1584412271571"><g transform="matrix(1,0,0,1,0,0)"><svg width="213.1584412271571" viewBox="1.75 -35.25 149.64 42.85" height="61.03467562033867" data-palette-color="#bfbfc9"><path d="M15.25-35.25Q18.1-35.25 20.35-34.23 22.6-33.2 24.6-31.25L24.6-31.25 21.4-27.95Q19.85-29.3 18.5-29.88 17.15-30.45 15.45-30.45L15.45-30.45Q12.15-30.45 10.28-27.5 8.4-24.55 8.4-17.3L8.4-17.3Q8.4-12.2 9.08-9.33 9.75-6.45 11.08-5.3 12.4-4.15 14.55-4.15L14.55-4.15Q16.8-4.15 18.65-5.4L18.65-5.4 18.65-14.75 14.75-14.75 14.1-19.5 24.7-19.5 24.7-2.6Q22.55-1.05 19.93-0.18 17.3 0.7 14.6 0.7L14.6 0.7Q8.15 0.7 4.95-3.68 1.75-8.05 1.75-17.3L1.75-17.3Q1.75-23.3 3.53-27.33 5.3-31.35 8.35-33.3 11.4-35.25 15.25-35.25L15.25-35.25ZM48.6-13.85Q48.6-13.4 48.45-11.3L48.45-11.3 34.8-11.3Q35-7.2 36.22-5.58 37.45-3.95 39.7-3.95L39.7-3.95Q41.25-3.95 42.5-4.48 43.75-5 45.2-6.15L45.2-6.15 47.75-2.65Q44.25 0.75 39.35 0.75L39.35 0.75Q34.15 0.75 31.37-2.85 28.6-6.45 28.6-13L28.6-13Q28.6-19.55 31.25-23.35 33.9-27.15 38.75-27.15L38.75-27.15Q43.4-27.15 46-23.78 48.6-20.4 48.6-13.85L48.6-13.85ZM42.6-15.3L42.6-15.65Q42.6-19.4 41.7-21.13 40.8-22.85 38.8-22.85L38.8-22.85Q36.95-22.85 35.97-21.18 35-19.5 34.8-15.3L34.8-15.3 42.6-15.3ZM64.05-5L66.2-1.2Q63.75 0.75 60.45 0.75L60.45 0.75Q57 0.75 55.2-1.23 53.4-3.2 53.4-6.6L53.4-6.6 53.4-22 50.3-22 50.3-26.45 53.4-26.45 53.4-32.3 59.55-33.05 59.55-26.45 64.55-26.45 63.95-22 59.55-22 59.55-6.6Q59.55-4.2 61.59-4.2L61.59-4.2Q62.25-4.2 62.75-4.38 63.25-4.55 64.05-5L64.05-5ZM76.09-34.55L76.09-5Q76.09 0.4 73.74 3.18 71.39 5.95 67.14 7.6L67.14 7.6 65.44 3.1Q67.29 2.2 68.19 1.18 69.09 0.15 69.39-1.3 69.69-2.75 69.69-5.25L69.69-5.25 69.69-34.55 76.09-34.55ZM90.69-35.25Q93.69-35.25 95.99-34.2 98.29-33.15 100.24-31.05L100.24-31.05 97.29-27.65Q95.74-29.05 94.27-29.75 92.79-30.45 91.14-30.45L91.14-30.45Q89.24-30.45 88.14-29.28 87.04-28.1 87.04-26.2L87.04-26.2Q87.04-24.3 88.19-23.1 89.34-21.9 92.69-20.6L92.69-20.6Q96.99-18.85 99.02-16.5 101.04-14.15 101.04-9.85L101.04-9.85Q101.04-6.9 99.69-4.48 98.34-2.05 95.82-0.65 93.29 0.75 89.94 0.75L89.94 0.75Q86.49 0.75 83.94-0.48 81.39-1.7 79.29-3.95L79.29-3.95 82.49-7.45Q84.29-5.85 85.94-5 87.59-4.15 89.54-4.15L89.54-4.15Q91.84-4.15 93.12-5.58 94.39-7 94.39-9.45L94.39-9.45Q94.39-11.6 93.27-12.98 92.14-14.35 89.09-15.5L89.09-15.5Q84.49-17.35 82.47-19.75 80.44-22.15 80.44-25.75L80.44-25.75Q80.44-28.5 81.77-30.65 83.09-32.8 85.44-34.02 87.79-35.25 90.69-35.25L90.69-35.25ZM112.89-34.55Q117.24-34.55 120.41-33.23 123.59-31.9 125.56-28.13 127.54-24.35 127.54-17.45L127.54-17.45Q127.54-7.7 123.66-3.85 119.79 0 113.54 0L113.54 0 105.19 0 105.19-34.55 112.89-34.55ZM113.84-29.8L111.54-29.8 111.54-4.75 113.89-4.75Q116.14-4.75 117.66-5.8 119.19-6.85 120.06-9.65 120.94-12.45 120.94-17.45L120.94-17.45Q120.94-22.55 120.01-25.25 119.09-27.95 117.56-28.88 116.04-29.8 113.84-29.8L113.84-29.8ZM141.04-35.25Q144.04-35.25 146.34-34.2 148.64-33.15 150.59-31.05L150.59-31.05 147.64-27.65Q146.09-29.05 144.61-29.75 143.14-30.45 141.49-30.45L141.49-30.45Q139.59-30.45 138.49-29.28 137.39-28.1 137.39-26.2L137.39-26.2Q137.39-24.3 138.54-23.1 139.69-21.9 143.04-20.6L143.04-20.6Q147.34-18.85 149.36-16.5 151.39-14.15 151.39-9.85L151.39-9.85Q151.39-6.9 150.04-4.48 148.69-2.05 146.16-0.65 143.64 0.75 140.29 0.75L140.29 0.75Q136.84 0.75 134.29-0.48 131.74-1.7 129.64-3.95L129.64-3.95 132.84-7.45Q134.64-5.85 136.29-5 137.94-4.15 139.89-4.15L139.89-4.15Q142.19-4.15 143.46-5.58 144.74-7 144.74-9.45L144.74-9.45Q144.74-11.6 143.61-12.98 142.49-14.35 139.44-15.5L139.44-15.5Q134.84-17.35 132.81-19.75 130.79-22.15 130.79-25.75L130.79-25.75Q130.79-28.5 132.11-30.65 133.44-32.8 135.79-34.02 138.14-35.25 141.04-35.25L141.04-35.25Z" opacity="1" transform="matrix(1,0,0,1,0,0)" fill="#bfbfc9" class="wordmark-text-0" data-fill-palette-color="quaternary" id="text-0"></path></svg></g></svg></g></svg></g></svg></g><g transform="matrix(1,0,0,1,64.40425975992454,0)"><svg viewBox="0 0 84.34992170730804 84.34992170730804" height="84.34992170730804" width="84.34992170730804"><g><svg xmlns="http://www.w3.org/2000/svg" xmlns:xlink="http://www.w3.org/1999/xlink" version="1.2" baseProfile="tiny" x="0" y="0" viewBox="5 5 90 90" xml:space="preserve" height="84.34992170730804" width="84.34992170730804" class="icon-icon-0" data-fill-palette-color="quaternary" id="icon-0"><path d="M77.5 17.5C77.5 10.607 71.893 5 65 5H17.5C10.607 5 5 10.607 5 17.5V25H22.5V82.5C22.5 89.393 28.107 95 35 95H82.5C89.393 95 95 89.393 95 82.5V75H77.5zM12.5 17.5C12.5 14.743 14.743 12.5 17.5 12.5S22.5 14.743 22.5 17.5zM87.5 82.5C87.5 85.257 85.257 87.5 82.5 87.5H46.456A12.4 12.4 0 0 0 47.5 82.5zM40 75V82.5C40 85.257 37.757 87.5 35 87.5S30 85.257 30 82.5V17.5C30 15.724 29.627 14.032 28.956 12.5H65C67.757 12.5 70 14.743 70 17.5V75z" fill="#bfbfc9" data-fill-palette-color="quaternary"></path><rect x="35" y="22.5" width="30" height="5" fill="#bfbfc9" data-fill-palette-color="quaternary"></rect><rect x="35" y="32.5" width="30" height="5" fill="#bfbfc9" data-fill-palette-color="quaternary"></rect><rect x="35" y="42.5" width="30" height="5" fill="#bfbfc9" data-fill-palette-color="quaternary"></rect><rect x="35" y="52.5" width="30" height="5" fill="#bfbfc9" data-fill-palette-color="quaternary"></rect><rect x="35" y="62.5" width="30" height="5" fill="#bfbfc9" data-fill-palette-color="quaternary"></rect></svg></g></svg></g><g></g></svg></g></svg></g></svg></g></svg></g><defs></defs></svg><rect width="342.85155851775386" height="342.85155851775386" fill="none" stroke="none" visibility="hidden"></rect></g></svg></g></svg>